<?xml version="1.0" standalone="no"?>
<!DOCTYPE svg PUBLIC "-//W3C//DTD SVG 20010904//EN"
 "http://www.w3.org/TR/2001/REC-SVG-20010904/DTD/svg10.dtd">
<svg version="1.0" xmlns="http://www.w3.org/2000/svg"
 width="232.000000pt" height="165.000000pt" viewBox="0 0 232.000000 165.000000"
 preserveAspectRatio="xMidYMid meet">
<metadata>
Created by potrace 1.15, written by Peter Selinger 2001-2017
</metadata>
<g transform="translate(0.000000,165.000000) scale(0.100000,-0.100000)"
fill="#000000" stroke="none">
<path d="M1060 1514 c-102 -37 -172 -110 -206 -213 -47 -145 37 -322 181 -382
l55 -23 0 -68 0 -68 -125 0 -125 0 0 -70 0 -70 125 0 125 0 0 -110 0 -110 70
0 70 0 0 110 0 110 125 0 125 0 0 70 0 70 -125 0 -125 0 0 69 0 68 47 18 c64
25 145 103 174 168 34 76 33 182 -2 257 -36 77 -68 112 -140 150 -77 41 -176
50 -249 24z m180 -143 c133 -71 131 -261 -4 -322 -139 -63 -280 52 -252 206 8
42 58 103 101 121 44 19 115 17 155 -5z"/>
<path d="M1642 1178 l3 -73 243 -100 c133 -55 242 -102 242 -105 0 -3 -110
-50 -245 -105 l-245 -100 0 -72 0 -73 53 23 c28 13 168 72 309 133 l258 109 0
85 0 85 -302 129 c-167 71 -307 131 -311 133 -4 3 -7 -28 -5 -69z"/>
<path d="M360 1106 l-305 -132 0 -84 0 -84 308 -132 307 -132 0 72 0 72 -240
98 c-132 54 -240 101 -240 105 0 4 108 51 240 106 l240 98 0 74 c0 40 -1 73
-2 72 -2 0 -140 -60 -308 -133z"/>
</g>
</svg>
